<?xml version="1.0" encoding="UTF-8" standalone="no"?>
<!-- Created with Inkscape (http://www.inkscape.org/) -->

<svg
   xmlns:dc="http://purl.org/dc/elements/1.1/"
   xmlns:cc="http://creativecommons.org/ns#"
   xmlns:rdf="http://www.w3.org/1999/02/22-rdf-syntax-ns#"
   xmlns:svg="http://www.w3.org/2000/svg"
   xmlns="http://www.w3.org/2000/svg"
   xmlns:sodipodi="http://sodipodi.sourceforge.net/DTD/sodipodi-0.dtd"
   xmlns:inkscape="http://www.inkscape.org/namespaces/inkscape"
   width="400mm"
   height="400mm"
   viewBox="0 0 1417.3228 1417.3228"
   id="svg2"
   version="1.1"
   inkscape:version="0.91 r13725"
   sodipodi:docname="video-camera-icon.svg">
  <defs
     id="defs4" />
  <sodipodi:namedview
     id="base"
     pagecolor="#ffffff"
     bordercolor="#666666"
     borderopacity="1.0"
     inkscape:pageopacity="0.0"
     inkscape:pageshadow="2"
     inkscape:zoom="0.24748737"
     inkscape:cx="323.91432"
     inkscape:cy="1104.9554"
     inkscape:document-units="px"
     inkscape:current-layer="layer1"
     showgrid="false"
     fit-margin-top="0"
     fit-margin-left="0"
     fit-margin-right="0"
     fit-margin-bottom="0"
     inkscape:window-width="1015"
     inkscape:window-height="531"
     inkscape:window-x="153"
     inkscape:window-y="120"
     inkscape:window-maximized="0" />
  <metadata
     id="metadata7">
    <rdf:RDF>
      <cc:Work
         rdf:about="">
        <dc:format>image/svg+xml</dc:format>
        <dc:type
           rdf:resource="http://purl.org/dc/dcmitype/StillImage" />
        <dc:title></dc:title>
      </cc:Work>
    </rdf:RDF>
  </metadata>
  <g
     inkscape:label="Layer 1"
     inkscape:groupmode="layer"
     id="layer1"
     transform="translate(1505.1932,1268.8049)">
    <g
       id="XMLID_2_"
       transform="matrix(25.421305,0,0,25.421305,-2010.1676,-1770.4647)">
      <path
         d="m 75.5,31.3 0,33.4 c 0,0.9 -0.4,1.5 -1.2,1.8 -0.3,0.1 -0.5,0.2 -0.8,0.2 -0.6,0 -1,-0.2 -1.4,-0.6 l -12.3,-12.4 0,5.1 c 0,2.4 -0.9,4.5 -2.6,6.2 -1.7,1.7 -3.8,2.6 -6.2,2.6 l -21.7,0 c -2.4,0 -4.5,-0.9 -6.2,-2.6 -1.7,-1.7 -2.6,-3.8 -2.6,-6.2 l 0,-21.6 c 0,-2.4 0.9,-4.5 2.6,-6.2 1.7,-1.7 3.8,-2.6 6.2,-2.6 l 21.6,0 c 2.4,0 4.5,0.9 6.2,2.6 1.7,1.7 2.6,3.8 2.6,6.2 l 0,5.1 L 72.1,30 c 0.4,-0.4 0.8,-0.6 1.4,-0.6 0.2,0 0.5,0.1 0.8,0.2 0.8,0.2 1.2,0.8 1.2,1.7 z"
         class="st0"
         id="XMLID_4_"
         inkscape:connector-curvature="0"
         style="fill:#333333" />
    </g>
  </g>
  <style
     id="style4137"
     type="text/css">
	.st0{fill:#333333;}
</style>
</svg>
